<?xml version="1.0" encoding="UTF-8" standalone="no"?>
<!-- Created with Inkscape (http://www.inkscape.org/) -->

<svg
   width="14.359883mm"
   height="14.35988mm"
   viewBox="0 0 14.359883 14.35988"
   version="1.1"
   id="svg1"
   xml:space="preserve"
   xmlns:xlink="http://www.w3.org/1999/xlink"
   xmlns="http://www.w3.org/2000/svg"
   xmlns:svg="http://www.w3.org/2000/svg"><defs
     id="defs1"><linearGradient
       id="linearGradient38"><stop
         style="stop-color:#057bff;stop-opacity:1;"
         offset="0"
         id="stop37" /><stop
         style="stop-color:#25ff25;stop-opacity:1;"
         offset="1"
         id="stop38" /></linearGradient><linearGradient
       id="linearGradient36"><stop
         style="stop-color:#057bff;stop-opacity:1;"
         offset="0"
         id="stop35" /><stop
         style="stop-color:#25ff25;stop-opacity:1;"
         offset="1"
         id="stop36" /></linearGradient><linearGradient
       id="linearGradient31"><stop
         style="stop-color:#85b3ff;stop-opacity:1;"
         offset="0"
         id="stop30" /><stop
         style="stop-color:#057bff;stop-opacity:1;"
         offset="1"
         id="stop31" /></linearGradient><linearGradient
       xlink:href="#linearGradient31"
       id="linearGradient23"
       gradientUnits="userSpaceOnUse"
       gradientTransform="matrix(0.59619409,0,0,0.59619409,-65.305896,158.8447)"
       x1="135.02582"
       y1="43.666954"
       x2="135.2426"
       y2="33.207958" /><linearGradient
       xlink:href="#linearGradient36"
       id="linearGradient28"
       gradientUnits="userSpaceOnUse"
       gradientTransform="matrix(-0.26566191,0,0,0.28010416,28.135071,169.53332)"
       x1="34.061142"
       y1="108.39744"
       x2="33.454323"
       y2="43.862312" /><linearGradient
       xlink:href="#linearGradient38"
       id="linearGradient29"
       gradientUnits="userSpaceOnUse"
       gradientTransform="matrix(0.26565001,0,0,0.28010416,2.2757279,169.52924)"
       x1="33.757748"
       y1="107.82191"
       x2="33.454323"
       y2="43.862312" /></defs><rect
     style="display:inline;fill:none;stroke:none;stroke-width:0;stroke-dasharray:none;stroke-opacity:1"
     id="rect29"
     width="14.359884"
     height="14.359884"
     x="-6.0977897e-07"
     y="-4.883233e-06" /><g
     id="g31-7-2"
     style="display:inline;stroke-width:0.327933;stroke-dasharray:none"
     transform="matrix(0.64189853,0,0,0.5508489,-2.5925148,-97.794324)"><path
       id="rect16-0-2-3-6-7"
       style="fill:url(#linearGradient23);stroke:#ffffff;stroke-width:0.327933;stroke-dasharray:none;stroke-opacity:1"
       d="m 14.597108,178.51113 -6.6828201,-0.0159 c 0,0 0.00571,-0.3947 0.00785,7.27281 5.7321521,-4.79546 6.4084841,-5.17247 7.2806331,-5.99486 h 0.05723 c 1.003556,0.85267 0.09868,0.0942 7.316174,5.95076 0.04836,-6.75231 0.02965,-7.20616 0.02965,-7.20616 l -6.845942,-0.006 z m 1.24654,5.51054 c -0.006,0.002 -0.01162,0.005 -0.01723,0.009 0.0036,-10e-4 0.0074,-0.002 0.01109,-0.002 l 3.04e-4,-3.1e-4 c 0.0024,-6e-4 0.0054,-0.004 0.0065,-0.005 v -3.1e-4 l 3.04e-4,-3.1e-4 v -3e-4 h -3.04e-4 -3.1e-4 z m -0.14819,1.90123 c 0.0018,0.004 0.0042,0.01 0.0061,0.0117 l 3.1e-4,3.1e-4 v 3.1e-4 h 3.1e-4 l 3.04e-4,3.1e-4 h 3.1e-4 3.1e-4 v -3.1e-4 -3.1e-4 c -3.75e-4,-0.001 -0.0018,-0.004 -0.0024,-0.005 v -3.1e-4 -3.1e-4 -3.1e-4 -3e-4 h 3.1e-4 3.1e-4 c 0.0024,4.8e-4 0.0042,10e-4 0.0054,0.002 l 3.1e-4,3e-4 h 3.04e-4 v 3.1e-4 h 3.1e-4 v 3.1e-4 h 3.1e-4 l 3.04e-4,3.1e-4 v 3.1e-4 l 3.11e-4,3.1e-4 3.1e-4,3.1e-4 3.04e-4,3e-4 3.1e-4,3.1e-4 v 3.1e-4 3e-4 3.1e-4 c -1.2e-5,1.8e-4 6e-6,6e-4 0,6e-4 v 3.1e-4 l 3.1e-4,3.1e-4 v 3.1e-4 3.1e-4 h 3.04e-4 l 3.1e-4,3e-4 h 3.1e-4 c 5.96e-4,-2e-5 0.0024,-3.6e-4 0.0036,-6e-4 0.0018,-0.001 0.003,-0.002 0.0036,-0.002 l 3.1e-4,-3.1e-4 h 3.1e-4 v -3.1e-4 -3.1e-4 -3e-4 h -3.1e-4 c -0.0012,-6e-4 -0.0042,-0.002 -0.0098,-0.005 -0.0042,-0.002 -0.0086,-0.004 -0.01294,-0.005 z" /><path
       id="rect1-6-9-6-8-6-9-3-0-1-7-0"
       style="fill:url(#linearGradient28);stroke:#ffffff;stroke-width:0.327933;stroke-dasharray:none;stroke-opacity:1"
       d="m 15.988714,182.03881 6.517588,5.38978 v 15.21447 h -0.01264 l -6.504955,-5.37935 z" /><path
       id="rect1-6-9-6-8-0-3-0-23-9-3-9"
       style="fill:url(#linearGradient29);stroke:#ffffff;stroke-width:0.327933;stroke-dasharray:none;stroke-opacity:1"
       d="m 14.421541,182.03473 -6.5172991,5.38978 v 15.21447 h 0.01264 l 6.5046661,-5.37934 z" /></g></svg>
