<?xml version="1.0" encoding="UTF-8" standalone="no"?>
<!-- Created with Inkscape (http://www.inkscape.org/) -->

<svg
   width="14.359878mm"
   height="14.359895mm"
   viewBox="0 0 14.359878 14.359895"
   version="1.1"
   id="svg1"
   xml:space="preserve"
   xmlns:xlink="http://www.w3.org/1999/xlink"
   xmlns="http://www.w3.org/2000/svg"
   xmlns:svg="http://www.w3.org/2000/svg"><defs
     id="defs1"><linearGradient
       id="linearGradient42"><stop
         style="stop-color:#c2d9ff;stop-opacity:1;"
         offset="0"
         id="stop39" /><stop
         style="stop-color:#006be0;stop-opacity:1;"
         offset="1"
         id="stop42" /></linearGradient><linearGradient
       id="linearGradient38"><stop
         style="stop-color:#057bff;stop-opacity:1;"
         offset="0"
         id="stop37" /><stop
         style="stop-color:#25ff25;stop-opacity:1;"
         offset="1"
         id="stop38" /></linearGradient><linearGradient
       id="linearGradient36"><stop
         style="stop-color:#057bff;stop-opacity:1;"
         offset="0"
         id="stop35" /><stop
         style="stop-color:#25ff25;stop-opacity:1;"
         offset="1"
         id="stop36" /></linearGradient><linearGradient
       xlink:href="#linearGradient42"
       id="linearGradient30"
       gradientUnits="userSpaceOnUse"
       gradientTransform="matrix(0.59619409,0,0,0.57363559,-65.305896,159.11858)"
       x1="134.62033"
       y1="43.503258"
       x2="134.70195"
       y2="24.040775" /><linearGradient
       xlink:href="#linearGradient36"
       id="linearGradient32"
       gradientUnits="userSpaceOnUse"
       gradientTransform="matrix(-0.23938453,0,0,0.25239826,27.255976,171.78929)"
       x1="34.061142"
       y1="108.39744"
       x2="33.454323"
       y2="43.862312" /><linearGradient
       xlink:href="#linearGradient38"
       id="linearGradient37"
       gradientUnits="userSpaceOnUse"
       gradientTransform="matrix(0.23901458,0,0,0.25201949,3.1668007,171.81605)"
       x1="33.757748"
       y1="107.82191"
       x2="33.454323"
       y2="43.862312" /></defs><rect
     style="display:inline;fill:none;stroke:none;stroke-width:0;stroke-dasharray:none;stroke-opacity:1"
     id="rect29-2"
     width="14.359884"
     height="14.359884"
     x="3.5479384e-06"
     y="8.6074988e-06" /><rect
     style="display:inline;fill:none;stroke:none;stroke-width:0;stroke-dasharray:none;stroke-opacity:1"
     id="rect29-9"
     width="14.359884"
     height="14.359884"
     x="0.75629014"
     y="0.72235972" /><g
     id="g31-7-2-2"
     style="display:inline;stroke:none;stroke-width:0.327933;stroke-dasharray:none"
     transform="matrix(0.64189853,0,0,0.5508489,-2.6166045,-97.383931)"><path
       id="rect16-0-2-3-6-7-0"
       style="fill:url(#linearGradient30);stroke:none;stroke-width:0.32167;stroke-dasharray:none;stroke-opacity:1"
       d="m 14.597108,178.04088 -6.6828201,-0.0153 c 0,0 0.00571,-0.37977 0.00785,6.99763 5.7321521,-4.61402 6.4084841,-4.97676 7.2806331,-5.76803 h 0.05723 c 1.003556,0.82041 0.09868,0.0906 7.316174,5.7256 0.04836,-6.49683 0.02965,-6.9335 0.02965,-6.9335 l -6.845942,-0.005 z m 1.24654,5.30203 c -0.006,0.002 -0.01162,0.005 -0.01723,0.009 0.0036,-9.6e-4 0.0074,-0.002 0.01109,-0.002 l 3.04e-4,-2.9e-4 c 0.0024,-5.7e-4 0.0054,-0.004 0.0065,-0.005 v -3e-4 l 3.04e-4,-3e-4 v -2.8e-4 h -3.04e-4 -3.1e-4 z m -0.14819,1.82929 c 0.0018,0.004 0.0042,0.01 0.0061,0.0112 l 3.1e-4,3e-4 v 3e-4 h 3.1e-4 l 3.04e-4,3e-4 h 3.1e-4 3.1e-4 v -3e-4 -3e-4 c -3.75e-4,-9.6e-4 -0.0018,-0.004 -0.0024,-0.005 v -2.9e-4 -3e-4 -3e-4 -2.9e-4 h 3.1e-4 3.1e-4 c 0.0024,4.6e-4 0.0042,9.7e-4 0.0054,0.002 l 3.1e-4,2.9e-4 h 3.04e-4 v 2.9e-4 h 3.1e-4 v 3e-4 h 3.1e-4 l 3.04e-4,3e-4 v 3e-4 l 3.11e-4,3e-4 3.1e-4,3e-4 3.04e-4,2.9e-4 3.1e-4,3e-4 v 3e-4 2.9e-4 2.8e-4 c -1.2e-5,1.9e-4 6e-6,5.8e-4 0,5.8e-4 v 3e-4 l 3.1e-4,3e-4 v 3e-4 3e-4 h 3.04e-4 l 3.1e-4,2.9e-4 h 3.1e-4 c 5.96e-4,-2e-5 0.0024,-3.5e-4 0.0036,-5.8e-4 0.0018,-9.6e-4 0.003,-0.002 0.0036,-0.002 l 3.1e-4,-3e-4 h 3.1e-4 v -3e-4 -3e-4 -2.9e-4 h -3.1e-4 c -0.0012,-5.6e-4 -0.0042,-0.002 -0.0098,-0.004 -0.0042,-0.002 -0.0086,-0.004 -0.01294,-0.004 z" /><path
       id="rect1-6-9-6-8-6-9-3-0-1-7-0-2"
       style="fill:url(#linearGradient32);stroke:none;stroke-width:0.295496;stroke-dasharray:none;stroke-opacity:1"
       d="m 16.31105,183.05782 5.872915,4.85666 v 13.70957 h -0.01139 l -5.861531,-4.84727 z" /><path
       id="rect1-6-9-6-8-0-3-0-23-9-3-9-3"
       style="fill:url(#linearGradient37);stroke:none;stroke-width:0.295053;stroke-dasharray:none;stroke-opacity:1"
       d="m 14.094812,183.06767 -5.8638409,4.84938 v 13.68899 h 0.011373 l 5.8524749,-4.83998 z" /></g></svg>
